<svg width="1052" height="1052" version="1" xmlns="http://www.w3.org/2000/svg">
  <path d="M119 697h30V197h-30zm61 0h89V197h-89zm118-500v500h90V197z" fill="#900"/>
  <path d="M839 697h29V197h-29zm60-500v500h29V197zM418 697h29V197h-29zm60-500v500h29V197z" fill="#396"/>
  <path d="M537 697h90V197h-90zm119 0h31V197h-31zm60-500v500h90V197z" fill="#069"/>
  <path d="M884 752l46 104h-28l-8-21h-47l-7 21h-28l42-104h30m2 65l-17-40-15 40h32m-60-65v19h-38v85h-26v-85h-37v-19h101m-134 0l46 104h-28l-8-21h-46l-8 21h-28l42-104h30m2 65l-16-40-16 40h32m-176-65h45c18 0 32 5 42 15 11 9 16 22 16 37 0 16-5 29-16 38-10 9-25 14-44 14h-43V752m26 19v66h16c11 0 20-3 25-9 6-6 9-14 9-24s-3-18-9-24-14-9-25-9h-16m-50-19v104h-26V752h26m-49 0l-34 49 46 55h-32l-41-49v49h-26V752h26v47l32-47h29m-111 0v104h-26V752h26m-127 38l-32 67h-12l-45-105h27l25 58 26-58h21l27 58 24-58h27l-45 105h-11l-32-67" fill="#484848"/>
</svg>
